# xmcd
#
# Track frame offsets:
# 150
# 10760
# 32215
# 47291
# 72360
# 95493
# 119754
# 139723
# 156607
# 168956
# 191856
# 223728
# 240642
# 254563
# 261723
# 275335
# 296612
# 310485
# 322324
# 330718
#
# Disc length: 4564 seconds
#
#
# Revision: 0
# Processed by: cddbd v1.4PL0 Copyright (c) Steve Scherf et al.
# Submitted via: FreeRIP 2.11 
#
DISCID=4611d214
DTITLE=Non Blues Ultra - 01/02/03
DYEAR=1900
DGENRE=Blues
TTITLE0=Wipe Out
TTITLE1=Roadhouse Blues
TTITLE2=Funky Bitch
TTITLE3=Hard To Handle/Sex Machine
TTITLE4=Sweet Home Alabama
TTITLE5=Sotto Viale Augusto
TTITLE6=Give It
TTITLE7=Burn To Shine
TTITLE8=Days Of Old
TTITLE9=New Orleans
TTITLE10=Sweet Home Chicago
TTITLE11=E' Asciut Pazz' O' Padron'
TTITLE12=Shake a Tail Feather
TTITLE13=Everybody Needs Somebody To Love
TTITLE14=Gimme Some Lovin'
TTITLE15=My Sharona
TTITLE16=Johnny B. Goode
TTITLE17=Great Balls of Fire
TTITLE18=Rock Around The Clock
TTITLE19=Jailhouse Rock
EXTD=Live Bootleg, Recorded Live at Amadeus, Carinaro (CE)
EXTT0=
EXTT1=
EXTT2=
EXTT3=
EXTT4=
EXTT5=
EXTT6=
EXTT7=
EXTT8=
EXTT9=
EXTT10=
EXTT11=
EXTT12=
EXTT13=
EXTT14=
EXTT15=
EXTT16=
EXTT17=
EXTT18=
EXTT19=
PLAYORDER=
